<svg width="27" height="28" viewBox="0 0 27 28" fill="none" xmlns="http://www.w3.org/2000/svg">
<g clip-path="url(#clip0_46804_3145)">
<path d="M26.3052 17.1412C24.5265 24.2767 17.2971 28.6143 10.1718 26.8355C3.03605 25.0568 -1.30154 17.8277 0.47724 10.7025C2.25592 3.56702 9.47483 -0.770562 16.6105 1.00822C23.7358 2.77649 28.0839 10.0056 26.3052 17.1412Z" fill="url(#paint0_linear_46804_3145)"/>
<path d="M19.7293 12.2628C19.9893 10.4948 18.6476 9.53794 16.7964 8.90352L17.3996 6.50103L15.9435 6.13701L15.3611 8.4771C14.9763 8.3835 14.5811 8.28989 14.1859 8.20669L14.7683 5.8562L13.3122 5.49219L12.7194 7.88428C12.397 7.81147 12.085 7.73867 11.7834 7.66587V7.65547L9.76571 7.15625L9.38089 8.71631C9.38089 8.71631 10.4625 8.96592 10.4417 8.97632C11.0346 9.12192 11.1386 9.51714 11.1178 9.82915L10.4313 12.5645C10.4729 12.5749 10.5249 12.5853 10.5873 12.6165C10.5353 12.6061 10.4833 12.5957 10.4313 12.5749L9.4745 16.4022C9.40169 16.579 9.21449 16.8494 8.80887 16.7454C8.81927 16.7662 7.74803 16.4854 7.74803 16.4854L7.02 18.1599L8.92328 18.6383C9.27689 18.7319 9.6201 18.8151 9.96331 18.9087L9.36009 21.332L10.8161 21.696L11.4194 19.2935C11.8146 19.3975 12.2098 19.5015 12.5842 19.5951L11.9914 21.9872L13.4474 22.3512L14.0507 19.9279C16.5468 20.3959 18.4188 20.2087 19.1989 17.9519C19.8333 16.1422 19.1677 15.0917 17.8572 14.4053C18.8244 14.1869 19.5421 13.5525 19.7293 12.2628V12.2628ZM16.3908 16.943C15.9435 18.7527 12.8858 17.775 11.8978 17.5254L12.6986 14.3117C13.6867 14.5613 16.8692 15.0501 16.3908 16.943ZM16.8484 12.2316C16.4324 13.8853 13.8947 13.0429 13.073 12.8349L13.8011 9.92275C14.6227 10.1308 17.2748 10.5156 16.8484 12.2316Z" fill="white"/>
</g>
<defs>
<linearGradient id="paint0_linear_46804_3145" x1="13.3837" y1="0.602985" x2="13.3837" y2="27.2317" gradientUnits="userSpaceOnUse">
<stop stop-color="#F9AA4B"/>
<stop offset="1" stop-color="#F7931A"/>
</linearGradient>
<clipPath id="clip0_46804_3145">
<rect width="26.625" height="26.625" fill="white" transform="translate(0.0782623 0.609375)"/>
</clipPath>
</defs>
</svg>
