<svg width="27" height="28" viewBox="0 0 27 28" fill="none" xmlns="http://www.w3.org/2000/svg">
<path d="M13.3125 2.12109C10.1496 2.12109 7.11622 3.37756 4.8797 5.61407C2.64318 7.85059 1.38672 10.884 1.38672 14.0469C1.38672 17.2098 2.64318 20.2432 4.8797 22.4797C7.11622 24.7162 10.1496 25.9727 13.3125 25.9727C16.4754 25.9727 19.5088 24.7162 21.7453 22.4797C23.9818 20.2432 25.2383 17.2098 25.2383 14.0469C25.2383 10.884 23.9818 7.85059 21.7453 5.61407C19.5088 3.37756 16.4754 2.12109 13.3125 2.12109ZM13.5898 4.34381C14.77 4.37754 15.935 4.62633 17.0272 5.07875C18.2049 5.56657 19.275 6.28159 20.1764 7.18297C21.0778 8.08435 21.7928 9.15444 22.2806 10.3322C22.7685 11.5099 23.0195 12.7721 23.0195 14.0469C23.0195 15.3216 22.7685 16.5839 22.2806 17.7616C21.7928 18.9393 21.0778 20.0094 20.1764 20.9108C19.275 21.8122 18.2049 22.5272 17.0272 23.015C15.935 23.4674 14.77 23.7162 13.5898 23.7499V4.34381Z" fill="#B3B3B3" stroke="#B3B3B3" stroke-width="0.554688"/>
</svg>
