<svg width="53" height="51" viewBox="0 0 53 51" fill="none" xmlns="http://www.w3.org/2000/svg">
<rect y="3.75" width="44.3365" height="43.5" rx="12.6413" fill="white"/>
<path d="M24.7562 35.5396C23.9804 35.5396 23.3516 34.9107 23.3516 34.135V18.1165C23.3516 17.3408 23.9804 16.7119 24.7562 16.7119H30.8419C32.2819 16.7119 33.5086 16.9846 34.5222 17.5301C35.5357 18.0694 36.3083 18.8202 36.8397 19.7824C37.3774 20.7385 37.6463 21.8417 37.6463 23.092C37.6463 24.3423 37.3743 25.4454 36.8305 26.4015C36.2866 27.3576 35.4987 28.1023 34.4666 28.6355C33.4407 29.1687 32.1985 29.4353 30.7399 29.4353H27.3704C26.5946 29.4353 25.9658 28.8064 25.9658 28.0307V27.6498C25.9658 26.8741 26.5946 26.2453 27.3704 26.2453H30.091C30.8635 26.2453 31.5001 26.1135 32.0007 25.8499C32.5075 25.5803 32.8844 25.2095 33.1317 24.7376C33.385 24.2595 33.5117 23.711 33.5117 23.092C33.5117 22.4669 33.385 21.9214 33.1317 21.4556C32.8844 20.9837 32.5075 20.619 32.0007 20.3616C31.4939 20.0981 30.8512 19.9663 30.0725 19.9663H28.7702C27.9944 19.9663 27.3656 20.5952 27.3656 21.3709V34.135C27.3656 34.9107 26.7367 35.5396 25.961 35.5396H24.7562Z" fill="#802642"/>
<mask id="path-3-outside-1_46804_3119" maskUnits="userSpaceOnUse" x="7.42969" y="15.123" width="20" height="21" fill="black">
<rect fill="white" x="7.42969" y="15.123" width="20" height="21"/>
<path d="M25.4278 27.5312C26.3456 27.7751 26.9039 28.7288 26.4927 29.5848C25.7618 31.1066 24.6271 32.4161 23.1963 33.3642C21.2814 34.633 18.9667 35.1683 16.6834 34.8702C14.4 34.5721 12.3039 33.461 10.7854 31.7438C9.26692 30.0267 8.42969 27.8208 8.42969 25.5369C8.42969 23.253 9.26692 21.047 10.7854 19.3299C12.3039 17.6128 14.4 16.5017 16.6834 16.2036C18.9667 15.9055 21.2814 16.4407 23.1963 17.7096C24.6271 18.6577 25.7618 19.9671 26.4927 21.4889C26.9039 22.3449 26.3456 23.2986 25.4278 23.5425C24.5154 23.785 23.5976 23.2234 23.1048 22.4182C22.6491 21.6735 22.032 21.0299 21.2903 20.5384C20.0674 19.7281 18.5893 19.3864 17.1312 19.5767C15.6731 19.7671 14.3345 20.4766 13.3648 21.5732C12.3951 22.6697 11.8604 24.0784 11.8604 25.5369C11.8604 26.9953 12.3951 28.4041 13.3648 29.5006C14.3345 30.5971 15.6731 31.3067 17.1312 31.497C18.5893 31.6874 20.0674 31.3456 21.2903 30.5353C22.032 30.0438 22.6491 29.4003 23.1048 28.6556C23.5976 27.8503 24.5154 27.2888 25.4278 27.5312Z"/>
</mask>
<path d="M25.4278 27.5312C26.3456 27.7751 26.9039 28.7288 26.4927 29.5848C25.7618 31.1066 24.6271 32.4161 23.1963 33.3642C21.2814 34.633 18.9667 35.1683 16.6834 34.8702C14.4 34.5721 12.3039 33.461 10.7854 31.7438C9.26692 30.0267 8.42969 27.8208 8.42969 25.5369C8.42969 23.253 9.26692 21.047 10.7854 19.3299C12.3039 17.6128 14.4 16.5017 16.6834 16.2036C18.9667 15.9055 21.2814 16.4407 23.1963 17.7096C24.6271 18.6577 25.7618 19.9671 26.4927 21.4889C26.9039 22.3449 26.3456 23.2986 25.4278 23.5425C24.5154 23.785 23.5976 23.2234 23.1048 22.4182C22.6491 21.6735 22.032 21.0299 21.2903 20.5384C20.0674 19.7281 18.5893 19.3864 17.1312 19.5767C15.6731 19.7671 14.3345 20.4766 13.3648 21.5732C12.3951 22.6697 11.8604 24.0784 11.8604 25.5369C11.8604 26.9953 12.3951 28.4041 13.3648 29.5006C14.3345 30.5971 15.6731 31.3067 17.1312 31.497C18.5893 31.6874 20.0674 31.3456 21.2903 30.5353C22.032 30.0438 22.6491 29.4003 23.1048 28.6556C23.5976 27.8503 24.5154 27.2888 25.4278 27.5312Z" fill="#802642"/>
<path d="M25.4278 27.5312C26.3456 27.7751 26.9039 28.7288 26.4927 29.5848C25.7618 31.1066 24.6271 32.4161 23.1963 33.3642C21.2814 34.633 18.9667 35.1683 16.6834 34.8702C14.4 34.5721 12.3039 33.461 10.7854 31.7438C9.26692 30.0267 8.42969 27.8208 8.42969 25.5369C8.42969 23.253 9.26692 21.047 10.7854 19.3299C12.3039 17.6128 14.4 16.5017 16.6834 16.2036C18.9667 15.9055 21.2814 16.4407 23.1963 17.7096C24.6271 18.6577 25.7618 19.9671 26.4927 21.4889C26.9039 22.3449 26.3456 23.2986 25.4278 23.5425C24.5154 23.785 23.5976 23.2234 23.1048 22.4182C22.6491 21.6735 22.032 21.0299 21.2903 20.5384C20.0674 19.7281 18.5893 19.3864 17.1312 19.5767C15.6731 19.7671 14.3345 20.4766 13.3648 21.5732C12.3951 22.6697 11.8604 24.0784 11.8604 25.5369C11.8604 26.9953 12.3951 28.4041 13.3648 29.5006C14.3345 30.5971 15.6731 31.3067 17.1312 31.497C18.5893 31.6874 20.0674 31.3456 21.2903 30.5353C22.032 30.0438 22.6491 29.4003 23.1048 28.6556C23.5976 27.8503 24.5154 27.2888 25.4278 27.5312Z" stroke="white" stroke-width="1.40459" mask="url(#path-3-outside-1_46804_3119)"/>
</svg>
