<svg width="27" height="27" viewBox="0 0 27 27" fill="none" xmlns="http://www.w3.org/2000/svg">
<path d="M6.50477 8.75144C6.40791 8.84806 6.33107 8.96282 6.27864 9.08918C6.22621 9.21553 6.19922 9.35099 6.19922 9.48779C6.19922 9.62459 6.22621 9.76005 6.27864 9.8864C6.33107 10.0128 6.40791 10.1275 6.50477 10.2241L13.5022 17.2215C13.5791 17.2987 13.6706 17.3598 13.7712 17.4016C13.8719 17.4434 13.9798 17.4648 14.0887 17.4648C14.1977 17.4648 14.3056 17.4434 14.4063 17.4016C14.5069 17.3598 14.5983 17.2987 14.6753 17.2215L21.6727 10.2241C22.0804 9.81644 22.0804 9.15914 21.6727 8.75144C21.265 8.34375 20.6077 8.34375 20.2 8.75144L14.0929 14.8586L7.97746 8.74312C7.56977 8.34375 6.91246 8.34375 6.50477 8.75144Z" fill="white"/>
</svg>
