<svg width="28" height="27" viewBox="0 0 28 27" fill="none" xmlns="http://www.w3.org/2000/svg">
<path d="M5.62192 11.9557L13.3875 4.19004C13.5956 3.98207 13.8777 3.86523 14.1719 3.86523C14.466 3.86523 14.7482 3.98207 14.9562 4.19004L22.7218 11.9557C22.9299 12.1637 23.0468 12.4458 23.0469 12.74V23.3745C23.0469 23.6687 22.93 23.9509 22.7219 24.1589C22.5139 24.367 22.2317 24.4838 21.9375 24.4838H16.3906V16.7182H11.9531V24.4838H6.40625C6.11203 24.4838 5.82985 24.367 5.6218 24.1589C5.41376 23.9509 5.29688 23.6687 5.29688 23.3745V12.74C5.29694 12.4458 5.41386 12.1637 5.62192 11.9557Z" fill="white"/>
</svg>
