<svg width="27" height="27" viewBox="0 0 27 27" fill="none" xmlns="http://www.w3.org/2000/svg">
<g clip-path="url(#clip0_46804_3159)">
<path d="M15.3462 7.50553C16.98 7.50553 18.3045 6.18104 18.3045 4.5472C18.3045 2.91336 16.98 1.58887 15.3462 1.58887C13.7123 1.58887 12.3878 2.91336 12.3878 4.5472C12.3878 6.18104 13.7123 7.50553 15.3462 7.50553Z" fill="#B3B3B3"/>
<path d="M18.371 19.5081C18.2893 19.4531 18.1974 19.415 18.1008 19.396C18.0041 19.377 17.9046 19.3776 17.8082 19.3975C17.7117 19.4175 17.6203 19.4566 17.5391 19.5124C17.458 19.5682 17.3888 19.6397 17.3356 19.7226C16.6206 20.7814 15.7448 21.7221 14.7397 22.5108C14.4956 22.6957 13.5859 23.3983 13.2013 23.2504C12.9351 23.169 13.0904 22.6439 13.1422 22.4221L13.5341 21.2609C13.6969 20.7876 16.5295 12.3859 16.8401 11.4244C17.2986 10.0192 17.0989 8.63622 15.0059 8.96903C14.4364 9.0282 8.66029 9.77517 8.55675 9.78257C8.45963 9.78888 8.3647 9.81426 8.27738 9.85726C8.19007 9.90026 8.11208 9.96004 8.04786 10.0332C7.98365 10.1063 7.93447 10.1914 7.90314 10.2835C7.8718 10.3757 7.85893 10.4731 7.86524 10.5702C7.87155 10.6674 7.89693 10.7623 7.93993 10.8496C7.98293 10.9369 8.04271 11.0149 8.11585 11.0791C8.18899 11.1433 8.27406 11.1925 8.36621 11.2238C8.45836 11.2552 8.55577 11.2681 8.65289 11.2617C8.65289 11.2617 10.8716 10.9733 11.1157 10.9511C11.2407 10.9389 11.3666 10.9631 11.4781 11.0209C11.5897 11.0786 11.6821 11.1674 11.7444 11.2765C11.8784 11.6908 11.86 12.1393 11.6926 12.5412C11.5003 13.2808 8.4606 21.8452 8.36446 22.3407C8.26134 22.7554 8.28997 23.1918 8.44637 23.5895C8.60278 23.9871 8.87918 24.3262 9.23717 24.5594C9.90908 25.0073 10.7091 25.2229 11.5151 25.1733C12.2987 25.1637 13.0737 25.0082 13.8004 24.7148C15.642 23.9752 17.5649 22.0079 18.5781 20.4622C18.6654 20.3051 18.6925 20.1217 18.6543 19.9461C18.6162 19.7705 18.5155 19.6148 18.371 19.5081Z" fill="#B3B3B3"/>
</g>
<defs>
<clipPath id="clip0_46804_3159">
<rect y="0.109375" width="26.625" height="26.625" rx="13.3125" fill="white"/>
</clipPath>
</defs>
</svg>
