<svg width="46" height="46" viewBox="0 0 46 46" fill="none" xmlns="http://www.w3.org/2000/svg">
<rect y="0.0302734" width="45.0445" height="45.0445" rx="22.5223" fill="#4A4F5B"/>
<g clip-path="url(#clip0_46804_3075)">
<rect x="9.82812" y="9.8584" width="24.5697" height="24.5697" rx="12.2849" fill="white"/>
<path d="M22.2662 9.8584L22.113 10.4326V27.0933L22.2662 27.262L29.2791 22.6906L22.2662 9.8584Z" fill="#343434"/>
<path d="M22.113 9.8584L14.9468 22.6905L22.113 27.262V19.1753V9.8584Z" fill="#8C8C8C"/>
<path d="M22.2001 28.4825L22.113 28.5915V34.1666L22.2001 34.4278L29.2791 24.1904L22.2001 28.4825Z" fill="#3C3C3B"/>
<path d="M22.113 34.4278V28.4825L14.9468 24.1904L22.113 34.4278Z" fill="#8C8C8C"/>
<path d="M22.113 27.2622L29.2791 22.6324L22.113 19.0723V27.2622Z" fill="#141414"/>
<path d="M14.9468 22.6324L22.113 27.2622V19.0723L14.9468 22.6324Z" fill="#393939"/>
</g>
<defs>
<clipPath id="clip0_46804_3075">
<rect x="9.82812" y="9.8584" width="24.5697" height="24.5697" rx="12.2849" fill="white"/>
</clipPath>
</defs>
</svg>
