<svg width="46" height="46" viewBox="0 0 46 46" fill="none" xmlns="http://www.w3.org/2000/svg">
<rect y="0.272461" width="45.0445" height="45.0445" rx="22.5223" fill="#4A4F5B"/>
<g clip-path="url(#clip0_46804_3093)">
<path d="M29.027 20.8679C29.027 21.5077 26.7359 22.0431 23.6647 22.1783L23.6667 22.1793C23.1554 22.207 22.6432 22.2182 22.1311 22.2131C21.3336 22.2131 20.7695 22.1895 20.5709 22.1793C17.4936 22.0442 15.1963 21.5088 15.1963 20.8679C15.1963 20.227 17.4936 19.6906 20.5709 19.5534V21.6459C20.7716 21.6613 21.348 21.6951 22.1444 21.6951C23.0996 21.6951 23.5777 21.6541 23.6647 21.647V19.5555C26.7359 19.6916 29.027 20.2281 29.027 20.8679ZM34.3402 21.4269L22.2396 33.0217C22.2053 33.0546 22.1597 33.0729 22.1122 33.0729C22.0647 33.0729 22.019 33.0546 21.9847 33.0217L9.88516 21.4269C9.85677 21.4002 9.83767 21.3651 9.83066 21.3268C9.82366 21.2885 9.82913 21.2489 9.84626 21.2139L14.3261 11.8027C14.3409 11.771 14.3646 11.7444 14.3942 11.7258C14.4238 11.7073 14.4581 11.6977 14.493 11.6983H29.7344C29.7689 11.6984 29.8027 11.7084 29.8317 11.7271C29.8607 11.7458 29.8838 11.7724 29.8982 11.8037L34.3791 21.2139C34.3963 21.2489 34.4017 21.2885 34.3947 21.3268C34.3877 21.3651 34.3686 21.4002 34.3402 21.4269ZM29.7559 21.0133C29.7559 20.1881 27.1433 19.4981 23.6678 19.3374V17.466H27.9531V14.6098H16.2856V17.466H20.5699V19.3384C17.0872 19.4981 14.4684 20.1881 14.4684 21.0143C14.4684 21.8415 17.0872 22.5294 20.5699 22.6912V28.6923H23.6667V22.6891C27.1413 22.5284 29.7559 21.8394 29.7559 21.0133Z" fill="white"/>
</g>
<defs>
<clipPath id="clip0_46804_3093">
<rect width="24.5697" height="24.5697" fill="white" transform="translate(9.82788 10.1006)"/>
</clipPath>
</defs>
</svg>
