<svg width="14" height="14" viewBox="0 0 14 14" fill="none" xmlns="http://www.w3.org/2000/svg">
<path d="M11.2165 10.6496L13.1271 12.5592C13.2162 12.6515 13.2655 12.775 13.2644 12.9033C13.2633 13.0315 13.2118 13.1542 13.1212 13.2449C13.0305 13.3356 12.9078 13.387 12.7795 13.3882C12.6513 13.3893 12.5277 13.34 12.4355 13.2509L10.5248 11.3402C9.2763 12.41 7.66196 12.9545 6.02057 12.8596C4.37919 12.7648 2.83835 12.0378 1.72138 10.8314C0.604405 9.62491 -0.00186824 8.03272 0.0297741 6.3889C0.0614164 4.74508 0.728515 3.17741 1.89109 2.01484C3.05366 0.852263 4.62133 0.185165 6.26516 0.153523C7.90898 0.121881 9.50116 0.728154 10.7076 1.84512C11.9141 2.96209 12.641 4.50294 12.7359 6.14432C12.8308 7.78571 12.2862 9.40005 11.2165 10.6486V10.6496ZM6.38762 11.892C7.81465 11.892 9.18324 11.3251 10.1923 10.3161C11.2014 9.30699 11.7683 7.9384 11.7683 6.51136C11.7683 5.08433 11.2014 3.71574 10.1923 2.70668C9.18324 1.69761 7.81465 1.13072 6.38762 1.13072C4.96058 1.13072 3.59199 1.69761 2.58293 2.70668C1.57386 3.71574 1.00697 5.08433 1.00697 6.51136C1.00697 7.9384 1.57386 9.30699 2.58293 10.3161C3.59199 11.3251 4.96058 11.892 6.38762 11.892V11.892Z" fill="#A2A3A4"/>
</svg>
