<svg width="14" height="8" viewBox="0 0 14 8" fill="none" xmlns="http://www.w3.org/2000/svg">
<path d="M0.514391 0.580631C0.433678 0.66114 0.369641 0.75678 0.325949 0.862076C0.282256 0.967371 0.259765 1.08025 0.259765 1.19425C0.259765 1.30825 0.282256 1.42114 0.325949 1.52643C0.369641 1.63173 0.433678 1.72737 0.514391 1.80788L6.34554 7.63903C6.40969 7.7033 6.48588 7.7543 6.56976 7.78909C6.65364 7.82389 6.74355 7.8418 6.83436 7.8418C6.92517 7.8418 7.01509 7.82389 7.09896 7.78909C7.18284 7.7543 7.25903 7.7033 7.32318 7.63903L13.1543 1.80788C13.4941 1.46813 13.4941 0.920377 13.1543 0.580631C12.8146 0.240885 12.2668 0.240885 11.9271 0.580631L6.83783 5.66989L1.74164 0.573697C1.40189 0.240885 0.854137 0.240885 0.514391 0.580631Z" fill="white"/>
</svg>
